# xmcd CD database file
#
# Track frame offsets:
#	150
#	23082
#	43325
#	65325
#	85707
#	104885
#	118325
#	138785
#	163840
#	196650
#
# Disc length: 2921 seconds
#
# Revision: 1
# Processed by: cddbd v1.5.2PL0 Copyright (c) Steve Scherf et al.
# Submitted via: CDex 1.70beta2
#
DISCID=890b670a
DTITLE=Various Artist - We Get A Kick Out Of Jazz 2
DYEAR=2006
DGENRE=Jazz
TTITLE0=Jimmy Smith ft. Taj Mahal - Strut
TTITLE1=John Scifield ft. John Mayer - I Don't Need No Doctor
TTITLE2=Chris Botti ft. Gladys Knight - Lover Man
TTITLE3=Diana Krall - Crazy
TTITLE4=Jamie Cullum - Rocket Man
TTITLE5=Lizz Wright - I'm Confessin'
TTITLE6=Aaron Neville - Cry Me A River
TTITLE7=Toots Thielemans ft. Oleta Adams - Stormy Weather
TTITLE8=Joe Henderson ft. Chaka Khan - Summertime
TTITLE9=James Brown - September Song
EXTD=YEAR: 2006
EXTT0=
EXTT1=
EXTT2=
EXTT3=
EXTT4=
EXTT5=
EXTT6=
EXTT7=
EXTT8=
EXTT9=
PLAYORDER=
